<?xml version="1.0" encoding="UTF-8" standalone="no"?>
<!-- Created with Inkscape (http://www.inkscape.org/) -->

<svg
   width="32"
   height="32"
   viewBox="0 0 8.4666683 8.4666682"
   version="1.1"
   id="svg1"
   inkscape:version="1.3 (0e150ed, 2023-07-21)"
   sodipodi:docname="logoLahcen.svg"
   xml:space="preserve"
   inkscape:export-filename="logoLahcen.png"
   inkscape:export-xdpi="500"
   inkscape:export-ydpi="500"
   xmlns:inkscape="http://www.inkscape.org/namespaces/inkscape"
   xmlns:sodipodi="http://sodipodi.sourceforge.net/DTD/sodipodi-0.dtd"
   xmlns:xlink="http://www.w3.org/1999/xlink"
   xmlns="http://www.w3.org/2000/svg"
   xmlns:svg="http://www.w3.org/2000/svg"><sodipodi:namedview
     id="namedview1"
     pagecolor="#ffffff"
     bordercolor="#000000"
     borderopacity="0.25"
     inkscape:showpageshadow="2"
     inkscape:pageopacity="0.0"
     inkscape:pagecheckerboard="0"
     inkscape:deskcolor="#d1d1d1"
     inkscape:document-units="px"
     inkscape:zoom="1.4499694"
     inkscape:cx="2995.2357"
     inkscape:cy="2505.915"
     inkscape:window-width="1440"
     inkscape:window-height="796"
     inkscape:window-x="313"
     inkscape:window-y="1105"
     inkscape:window-maximized="0"
     inkscape:current-layer="layer1"
     showgrid="true"
     inkscape:export-bgcolor="#ffffff00"
     inkscape:lockguides="true" /><defs
     id="defs1"><linearGradient
       id="linearGradient1"
       inkscape:collect="always"><stop
         style="stop-color:#3d4246;stop-opacity:0.99484539;"
         offset="0"
         id="stop2" /><stop
         style="stop-color:#171717;stop-opacity:1;"
         offset="1"
         id="stop1" /></linearGradient><linearGradient
       inkscape:collect="always"
       xlink:href="#linearGradient1"
       id="linearGradient17"
       gradientUnits="userSpaceOnUse"
       x1="45.117397"
       y1="93.299614"
       x2="177.66119"
       y2="93.299614" /><linearGradient
       inkscape:collect="always"
       xlink:href="#linearGradient1"
       id="linearGradient18"
       gradientUnits="userSpaceOnUse"
       x1="45.117397"
       y1="93.299614"
       x2="177.66119"
       y2="93.299614" /><linearGradient
       inkscape:collect="always"
       xlink:href="#linearGradient1"
       id="linearGradient19"
       gradientUnits="userSpaceOnUse"
       x1="45.117397"
       y1="93.299614"
       x2="177.66119"
       y2="93.299614" /><linearGradient
       inkscape:collect="always"
       xlink:href="#linearGradient1"
       id="linearGradient20"
       gradientUnits="userSpaceOnUse"
       x1="45.117397"
       y1="93.299614"
       x2="177.66119"
       y2="93.299614" /><linearGradient
       inkscape:collect="always"
       xlink:href="#linearGradient1"
       id="linearGradient21"
       gradientUnits="userSpaceOnUse"
       x1="45.117397"
       y1="93.299614"
       x2="177.66119"
       y2="93.299614" /><linearGradient
       inkscape:collect="always"
       xlink:href="#linearGradient1"
       id="linearGradient22"
       gradientUnits="userSpaceOnUse"
       x1="45.117397"
       y1="93.299614"
       x2="177.66119"
       y2="93.299614" /><linearGradient
       inkscape:collect="always"
       xlink:href="#linearGradient1"
       id="linearGradient23"
       gradientUnits="userSpaceOnUse"
       x1="45.117397"
       y1="93.299614"
       x2="177.66119"
       y2="93.299614" /><linearGradient
       inkscape:collect="always"
       xlink:href="#linearGradient1"
       id="linearGradient24"
       gradientUnits="userSpaceOnUse"
       x1="45.117397"
       y1="93.299614"
       x2="177.66119"
       y2="93.299614" /><linearGradient
       inkscape:collect="always"
       xlink:href="#linearGradient1"
       id="linearGradient25"
       gradientUnits="userSpaceOnUse"
       x1="45.117397"
       y1="93.299614"
       x2="177.66119"
       y2="93.299614" /><linearGradient
       inkscape:collect="always"
       xlink:href="#linearGradient1"
       id="linearGradient26"
       gradientUnits="userSpaceOnUse"
       x1="45.117397"
       y1="93.299614"
       x2="177.66119"
       y2="93.299614" /><linearGradient
       inkscape:collect="always"
       xlink:href="#linearGradient1"
       id="linearGradient27"
       gradientUnits="userSpaceOnUse"
       x1="45.117397"
       y1="93.299614"
       x2="177.66119"
       y2="93.299614" /><linearGradient
       inkscape:collect="always"
       xlink:href="#linearGradient1"
       id="linearGradient28"
       gradientUnits="userSpaceOnUse"
       x1="45.117397"
       y1="93.299614"
       x2="177.66119"
       y2="93.299614" /></defs><g
     inkscape:label="Layer 1"
     inkscape:groupmode="layer"
     id="layer1"
     transform="translate(-566.00382,-481.92487)"><rect
       style="fill:#ffffff;fill-opacity:1;stroke-width:1.07664;-inkscape-stroke:none"
       id="rect1"
       width="8.4666681"
       height="8.4666681"
       x="566.00378"
       y="481.92487"
       inkscape:export-filename="../../../Downloads/favicon.png"
       inkscape:export-xdpi="3000"
       inkscape:export-ydpi="3000"
       ry="1.5430856"
       rx="1.5430856" /><g
       id="g17"
       transform="matrix(0.06208781,0,0,0.06208781,563.22572,480.22911)"
       style="fill:url(#linearGradient28);fill-opacity:1"
       inkscape:export-filename="mylogo"
       inkscape:export-xdpi="96"
       inkscape:export-ydpi="96"><circle
         id="circle1"
         style="fill:url(#linearGradient17);fill-opacity:1;stroke:#000000;stroke-width:0.334156"
         cx="171.50986"
         cy="3.8466318"
         transform="rotate(23.225276)"
         r="0.055395931" /><circle
         id="circle2"
         style="fill:url(#linearGradient18);fill-opacity:1;stroke:#000000;stroke-width:0.334156"
         cx="171.50986"
         cy="3.8466318"
         transform="rotate(23.225276)"
         r="0.055395931" /><path
         d="m 53.876281,120.09587 5.067258,9.3667 c 0.691937,-0.11184 1.382354,-0.23332 2.076984,-0.32801 4.598565,-0.63872 9.20599,-1.21033 13.81452,-1.77192 5.105666,-0.59625 10.217093,-1.14846 15.334057,-1.63961 2.558473,-0.24559 5.118314,-0.47579 7.679718,-0.68875 2.561392,-0.21298 5.124122,-0.40867 7.688512,-0.58479 3.17165,-0.19207 5.44414,-0.34164 7.73,-0.46664 2.28584,-0.12501 4.58509,-0.22544 7.81005,-0.31876 2.87409,-0.0831 5.74974,-0.13497 8.62571,-0.14887 2.87596,-0.0139 5.7523,0.01 8.62717,0.0786 2.87489,0.0685 5.74852,0.18115 8.61938,0.3451 2.87085,0.16394 5.73889,0.37913 8.60276,0.65165 2.82405,0.30769 4.7522,0.49391 6.64685,0.71804 0.94732,0.11207 1.88642,0.23352 2.92487,0.38464 1.03843,0.15113 2.17616,0.3317 3.52135,0.56183 1.45634,0.24917 2.90433,0.54757 4.34581,0.87181 0.66894,0.15046 1.38609,0.32519 2.09944,0.52863 0.71336,0.20345 1.42293,0.43561 2.07746,0.70048 0.17369,0.0701 0.32865,0.17999 0.49302,0.26993 l -6.52822,-10.69147 c -0.60569,0.13424 -0.70165,0.16187 -1.49076,0.27871 -1.43549,0.21257 -2.8752,0.38573 -4.31798,0.53011 -1.44277,0.1444 -2.88837,0.25988 -4.33555,0.3578 -2.89434,0.19585 -5.79488,0.3206 -8.68965,0.46079 -4.13405,0.17492 -8.26927,0.29635 -12.40529,0.37928 -4.13604,0.083 -8.27307,0.12741 -12.41018,0.14888 -8.27425,0.0429 -16.54962,-0.006 -24.82278,-0.0264 -5.463557,-0.006 -10.927016,-0.0339 -16.390378,-0.0732 -5.463348,-0.0393 -10.926634,-0.0907 -16.389873,-0.14546 -2.486603,-0.0366 -4.973027,-0.0413 -7.459091,-0.0127 -2.486056,0.0287 -4.971771,0.0904 -7.456646,0.18598 -0.251317,0.01 -0.716336,0.0504 -1.088521,0.0777 z"
         style="fill:url(#linearGradient19);fill-opacity:1;stroke-width:0.378887;stroke-linecap:round;stroke-linejoin:round"
         id="path2"
         inkscape:export-filename="./T6.png"
         inkscape:export-xdpi="500"
         inkscape:export-ydpi="500" /><path
         d="m 160.41172,64.77532 -7.83835,-6.498449 c 0.0539,0.258524 0.11184,0.51615 0.16351,0.775146 0.25829,1.294406 0.49079,2.594033 0.71463,3.895265 0.23394,1.427486 0.45786,2.856635 0.67458,4.286748 0.21674,1.430103 0.42617,2.861141 0.63067,4.293086 0.409,2.86388 0.79865,5.730981 1.18859,8.597403 0.21644,1.621844 0.44185,3.242281 0.67459,4.861754 0.23276,1.619473 0.47275,3.237795 0.71804,4.855417 0.49058,3.235225 1.00235,6.467182 1.52051,9.698126 0.99006,5.913414 2.01475,11.820934 2.99712,17.735664 0.37472,2.33654 0.74331,4.67387 1.12952,7.00854 l 7.91939,8.42949 c -0.56794,-2.50829 -1.11763,-5.02104 -1.64059,-7.53914 -0.31466,-1.50462 -0.62456,-3.00997 -0.92744,-4.51715 -0.30288,-1.50716 -0.59875,-3.0161 -0.88547,-4.5264 -0.28672,-1.51031 -0.56412,-3.02216 -0.83031,-4.53618 -0.26617,-1.51402 -0.52119,-3.03006 -0.76246,-4.54839 -0.50601,-3.21304 -1.01258,-6.42635 -1.49562,-9.642972 -0.24151,-1.608308 -0.4773,-3.217117 -0.70388,-4.827588 -0.22658,-1.610473 -0.44417,-3.222417 -0.6497,-4.835883 -0.35373,-2.768544 -0.7017,-5.537785 -1.03433,-8.308917 -0.33265,-2.771141 -0.64997,-5.544378 -0.94259,-8.320148 -0.11243,-1.118474 -0.22968,-2.237317 -0.34218,-3.356369 -0.0998,-0.992824 -0.19268,-1.985886 -0.27823,-2.979053 z"
         style="fill:url(#linearGradient20);fill-opacity:1;stroke-width:0.378887;stroke-linecap:round;stroke-linejoin:round"
         id="path3"
         inkscape:export-filename="./Tsss.png"
         inkscape:export-xdpi="500"
         inkscape:export-ydpi="500" /><path
         id="path4"
         style="fill:url(#linearGradient21);fill-opacity:1;fill-rule:nonzero;stroke:none;stroke-width:0.378887;stroke-linecap:round;stroke-linejoin:round;stroke-opacity:1"
         d="m 147.8791,59.077805 c -3.675,1.145746 -9.66224,2.238017 -16.97803,0.78583 1.03618,3.180675 1.38596,6.546168 1.35035,9.697789 0.0274,0.597346 0.0425,1.195534 0.0288,1.794939 -0.0351,1.009526 -0.0798,2.008322 -0.22934,3.008733 -0.0464,0.310664 -0.12012,0.734103 -0.22332,1.048311 -0.024,0.07226 -0.0733,0.213079 -0.0746,0.216592 l 8.20258,9.44089 c 0.0113,-1.716435 0.008,-3.432861 0.0273,-5.149362 0.0462,-2.039805 -0.0405,-4.077352 -0.16958,-6.112348 -0.0717,-1.106167 -0.14057,-2.217774 -0.39138,-3.299968 -0.10811,-0.340957 -0.1702,-0.713322 -0.27562,-1.065681 0.31941,0.04657 0.64041,0.08804 0.70713,0.09819 1.24275,0.226361 2.50029,0.328508 3.76048,0.375823 -0.07,0.74881 -0.13052,1.49851 -0.17253,2.24904 -0.0558,0.996453 -0.072,1.994625 -0.10786,2.991994 -0.11733,7.306786 0.51978,14.595578 1.24254,21.858527 0.52582,4.851446 1.08449,9.699566 1.62414,14.549506 l 7.03257,7.54824 c -0.99268,-5.14474 -1.92556,-10.30441 -2.57457,-15.50565 -0.13819,-1.2548 -0.29366,-2.50775 -0.41439,-3.764365 -0.55344,-5.760065 -0.73814,-11.56429 -0.35915,-17.341773 0.0862,-0.915927 0.14756,-1.834348 0.25863,-2.747602 0.36195,-2.97553 1.00058,-5.971615 2.38042,-8.653634 0.39443,-0.657196 0.39431,-0.683511 0.78532,-1.252445 0.0761,-0.110611 0.13425,-0.187642 0.23376,-0.327932 -2.05887,-2.569283 -4.33911,-6.126366 -5.66367,-10.443662 z"
         inkscape:export-filename="./T3.png"
         inkscape:export-xdpi="500"
         inkscape:export-ydpi="500" /><g
         id="g9"
         transform="matrix(0.94458579,0,0,0.94458579,19.987215,34.835898)"
         style="fill:url(#linearGradient25);fill-opacity:1"
         inkscape:export-filename="./g14-1-4-5.png"
         inkscape:export-xdpi="500"
         inkscape:export-ydpi="500"><path
           style="fill:url(#linearGradient22);fill-opacity:1;fill-rule:nonzero;stroke:none;stroke-width:0.401115;stroke-linecap:round;stroke-linejoin:round;stroke-opacity:1"
           id="path5"
           d="m 118.68049,56.68275 c 0.0211,0.584127 0.005,0.373792 0.0888,1.146489 0.14701,1.362341 0.17589,1.388089 0.30185,2.914319 0.1692,2.05021 0.15484,2.238485 0.24238,4.341383 0.11084,3.868298 -0.005,7.737012 -0.11619,11.603664 -0.0324,1.121494 -0.06,2.243094 -0.0932,3.364562 0,0 8.33089,9.170018 8.33089,9.170018 v 0 c -0.0976,-1.247399 -0.18984,-2.495192 -0.27404,-3.743585 -0.20661,-4.010378 -0.362,-8.025196 -0.28831,-12.041873 0.063,-2.264621 0.0936,-4.564652 0.58692,-6.786315 z"
           inkscape:export-filename="./path12-5-3-0.svg"
           inkscape:export-xdpi="500"
           inkscape:export-ydpi="500" /><path
           style="fill:url(#linearGradient23);fill-opacity:1;fill-rule:nonzero;stroke:none;stroke-width:0.401115;stroke-linecap:round;stroke-linejoin:round;stroke-opacity:1"
           id="path7"
           d="m 108.98709,55.293371 c 0.0211,0.584127 0.005,0.373792 0.0888,1.146488 0.14699,1.362342 0.17589,1.388089 0.30185,2.914321 0.1692,2.050209 0.15484,2.238484 0.24238,4.341382 0.11071,3.868299 -0.005,7.737012 -0.11619,11.603664 -0.0322,1.121495 -0.06,2.243094 -0.0932,3.364563 0,0 8.33091,9.170015 8.33091,9.170015 v 0 c -0.0976,-1.2474 -0.18985,-2.49519 -0.27405,-3.743583 -0.20661,-4.010377 -0.362,-8.025197 -0.2883,-12.041872 0.063,-2.264622 0.0936,-4.564652 0.58689,-6.786315 z"
           inkscape:export-filename="./T2.png"
           inkscape:export-xdpi="500"
           inkscape:export-ydpi="500" /><path
           style="fill:url(#linearGradient24);fill-opacity:1;fill-rule:nonzero;stroke:none;stroke-width:0.401115;stroke-linecap:round;stroke-linejoin:round;stroke-opacity:1"
           id="path9"
           d="m 99.17397,54.644122 c 0.02112,0.584125 0.0053,0.373791 0.08878,1.146487 0.147008,1.362341 0.175888,1.38809 0.301852,2.91432 0.169203,2.05021 0.154843,2.238485 0.24238,4.341382 0.110841,3.868299 -0.0053,7.737012 -0.11619,11.603664 -0.03236,1.121495 -0.06003,2.243094 -0.09319,3.364564 0,0 8.330888,9.170017 8.330888,9.170017 v 0 c -0.0976,-1.247403 -0.18985,-2.495193 -0.27404,-3.743586 -0.20661,-4.010377 -0.36201,-8.025196 -0.28831,-12.041872 0.063,-2.264622 0.0936,-4.564652 0.58691,-6.786314 z" /></g><path
         style="fill:url(#linearGradient26);fill-opacity:1;fill-rule:nonzero;stroke:none;stroke-width:0.281395;stroke-linecap:round;stroke-linejoin:round;stroke-opacity:1"
         id="path10"
         d="m 93.66356,92.014436 c -0.389994,0.525369 -0.903132,0.944623 -1.391454,1.374627 -0.641024,0.561226 -1.269527,1.136441 -1.919603,1.687323 -0.491178,0.440743 -1.014381,0.84104 -1.538198,1.24112 -0.273067,0.199449 -0.539367,0.40738 -0.800354,0.622293 -0.147929,0.122551 -0.301342,0.237969 -0.449896,0.359763 0,0 5.576863,7.369398 5.576863,7.369398 v 0 c 0.146032,-0.12812 0.302312,-0.24241 0.452008,-0.36609 0.255082,-0.22743 0.515035,-0.44928 0.7453,-0.70297 0.473915,-0.46385 0.946796,-0.92891 1.433221,-1.37971 0.638104,-0.56282 1.277814,-1.12415 1.931571,-1.66877 0.49199,-0.41436 0.99087,-0.833805 1.5642,-1.132497 z"
         inkscape:export-filename="./T5.png"
         inkscape:export-xdpi="500"
         inkscape:export-ydpi="500" /><path
         d="m 102.58952,86.41307 c 0.0441,0.342091 0.0956,0.68286 0.1352,1.025555 0.0903,0.782288 0.17132,1.566077 0.25334,2.347409 0.0521,0.58333 0.0971,1.166923 0.13473,1.750922 0.0375,0.583991 0.0681,1.168349 0.0928,1.752869 0.0495,1.169038 0.074,2.338889 0.0816,3.509155 0.008,1.170256 -0.002,2.340788 -0.0244,3.51109 -0.0218,1.17032 -0.0556,2.34045 -0.0937,3.50966 -0.0457,1.33844 -0.11695,2.67584 -0.18256,4.01339 -0.71179,-0.002 -1.42331,0.002 -2.13508,-0.0171 -1.093272,-0.0291 -2.186762,-0.0724 -3.279242,-0.10787 -2.683068,-0.0797 -5.366355,-0.15317 -8.049718,-0.2143 -2.683372,-0.0611 -5.367089,-0.10943 -8.051185,-0.14008 -0.737033,-0.009 -1.473167,-0.009 -2.209755,-0.002 -0.736607,0.006 -1.473573,0.0209 -2.209764,0.0409 -1.472373,0.0402 -2.943754,0.10506 -4.414625,0.18598 -1.470853,0.0809 -2.940704,0.17772 -4.410243,0.28311 -1.469539,0.10538 -2.939382,0.2188 -4.407797,0.33241 -3.651315,0.30812 -7.301705,0.62654 -10.955551,0.90352 -0.715279,0.0777 -1.433135,0.13391 -2.15069,0.19819 -0.358773,0.0321 -0.717565,0.0662 -1.075344,0.10593 -0.357781,0.0398 -0.715194,0.0858 -1.070953,0.14059 -0.123996,0.0261 -0.248955,0.0326 -0.373423,0.0484 l 5.106308,9.43845 c 0.249909,-0.0436 0.49706,-0.099 0.742936,-0.15962 0.247009,-0.0608 0.493139,-0.12568 0.739998,-0.18842 0.649799,-0.16218 1.301789,-0.31621 1.955443,-0.46226 0.653644,-0.14606 1.308488,-0.28456 1.965202,-0.41588 1.719561,-0.33352 3.441635,-0.65731 5.168301,-0.95185 0.863342,-0.14726 1.727865,-0.28698 2.593917,-0.41735 0.866053,-0.13036 1.733816,-0.25155 2.603184,-0.36024 1.439227,-0.17788 2.880638,-0.34261 4.323841,-0.48861 1.443214,-0.14601 2.888411,-0.27318 4.335073,-0.37343 0.723317,-0.0502 1.447105,-0.0933 2.171187,-0.12935 0.724091,-0.0361 1.448862,-0.0647 2.173643,-0.0849 0.724781,-0.0203 1.449194,-0.0329 2.174607,-0.0357 0.725413,-0.003 1.451579,0.004 2.17754,0.0205 1.036243,0.0265 2.072563,0.0403 3.108398,0.0795 1.121545,0.0423 2.242508,0.0998 3.362716,0.16938 1.120187,0.0695 2.240008,0.15105 3.358816,0.2421 1.118788,0.0911 2.236578,0.19185 3.353908,0.29874 1.117352,0.10689 2.233722,0.22019 3.349542,0.33731 0.59736,0.0701 1.19896,0.13709 1.80022,0.21037 0.60129,0.0733 1.20283,0.15321 1.8012,0.24847 0.59836,0.0953 1.19353,0.20618 1.78215,0.34217 0.2943,0.068 0.58705,0.14187 0.87765,0.22356 0.0636,0.0177 0.12521,0.04 0.18842,0.0585 0.0732,0.0218 0.14572,0.0458 0.21868,0.0684 -0.0239,-0.23261 -0.0425,-0.46583 -0.0654,-0.69851 -0.0888,-0.89948 -0.17664,-1.7993 -0.25384,-2.69985 -0.10269,-1.19771 -0.19675,-2.39669 -0.28507,-3.59555 -0.0865,-1.20262 -0.16775,-2.40577 -0.23966,-3.60972 -0.0719,-1.20393 -0.13453,-2.40816 -0.185,-3.61312 -0.0505,-1.20496 -0.0886,-2.41084 -0.11081,-3.616548 -0.0221,-1.205692 -0.0281,-2.410842 -0.0151,-3.617021 0.021,-0.866309 0.0383,-1.736442 0.066,-2.605631 z"
         style="fill:url(#linearGradient27);fill-opacity:1;stroke-width:0.378887;stroke-linecap:round;stroke-linejoin:round"
         id="path17"
         inkscape:export-filename="./T42.png"
         inkscape:export-xdpi="500"
         inkscape:export-ydpi="500" /></g></g></svg>
